<?xml version="1.0" encoding="UTF-8" standalone="no"?>
<svg width="10px" height="10px" viewBox="0 0 10 10" version="1.1" xmlns="http://www.w3.org/2000/svg" xmlns:xlink="http://www.w3.org/1999/xlink">
    <!-- Generator: Sketch 44.1 (41455) - http://www.bohemiancoding.com/sketch -->
    <title>close</title>
    <desc>Created with Sketch.</desc>
    <defs></defs>
    <g id="Symbols" stroke="none" stroke-width="1" fill="none" fill-rule="evenodd">
        <g id="Pill-with-avatar" transform="translate(-96.000000, -8.000000)" fill="#53698D">
            <g id="Pill-W/--Portrait">
                <g id="pill-with-icon-copy">
                    <path d="M102.355014,12.8243243 L105.878049,9.28378378 C106.04065,9.12162162 106.04065,8.87837838 105.878049,8.71621622 L105.336043,8.14864865 C105.173442,7.98648649 104.929539,7.98648649 104.766938,8.14864865 L101.216802,11.6891892 C101.108401,11.7972973 100.945799,11.7972973 100.837398,11.6891892 L97.2872629,8.12162162 C97.1246612,7.95945946 96.8807588,7.95945946 96.7181572,8.12162162 L96.1490515,8.68918919 C95.9864499,8.85135135 95.9864499,9.09459459 96.1490515,9.25675676 L99.699187,12.7972973 C99.8075881,12.9054054 99.8075881,13.0675676 99.699187,13.1756757 L96.1219512,16.7432432 C95.9593496,16.9054054 95.9593496,17.1486486 96.1219512,17.3108108 L96.6910569,17.8783784 C96.8536585,18.0405405 97.097561,18.0405405 97.2601626,17.8783784 L100.810298,14.3378378 C100.918699,14.2297297 101.081301,14.2297297 101.189702,14.3378378 L104.739837,17.8783784 C104.902439,18.0405405 105.146341,18.0405405 105.308943,17.8783784 L105.878049,17.3108108 C106.04065,17.1486486 106.04065,16.9054054 105.878049,16.7432432 L102.355014,13.2027027 C102.246612,13.0945946 102.246612,12.9324324 102.355014,12.8243243 L102.355014,12.8243243 Z" id="close"></path>
                </g>
            </g>
        </g>
    </g>
</svg>